<?xml version="1.0" encoding="utf-8"?>
<!-- Generator: Adobe Illustrator 15.0.0, SVG Export Plug-In . SVG Version: 6.00 Build 0)  -->
<!DOCTYPE svg PUBLIC "-//W3C//DTD SVG 1.1//EN" "http://www.w3.org/Graphics/SVG/1.1/DTD/svg11.dtd">
<svg version="1.1" id="Layer_1" xmlns="http://www.w3.org/2000/svg" xmlns:xlink="http://www.w3.org/1999/xlink" x="0px" y="0px"
	 width="841.891px" height="595.281px" viewBox="0 0 841.891 595.281" enable-background="new 0 0 841.891 595.281"
	 xml:space="preserve">
<g>
	<g id="XMLID_1_">
		<g>
			<path fill="#9ADAEC" d="M443.78,218.25c3.239,3.55,6.59,10.33,6.26,17.32c-0.609,12.7-10.75,23.18-23.899,23.25
				c-13.669,0.08-23.761-9.82-24.7-22.61c-0.55-7.47,2.62-13.83,5.93-17.64c3.47-4,8.58-7.48,15.721-8.18
				C432.7,209.45,439.44,213.47,443.78,218.25z"/>
			<path fill="#9ADAEC" d="M496.551,419.38c11.33,1.529,20.989,13.699,14.92,27.102c-3.04,6.719-8.721,11.549-18.931,11.549
				c-60.579,0-121.55,0-182.359,0c-10.12,0-15.73-4.9-18.771-11.549c-6.1-13.342,3.5-25.553,15.08-27.102
				c4.28-0.58,9.62-0.32,14.75-0.32c20.42,0,40.44,0,60.79,0c0.01-38.779,0-76.568,0-114.359c0-1.379-2.79-4.15-4.17-5.779
				c-45.65-54.2-91.11-107.49-136.811-161.51c106.551-0.27,214.24-0.27,320.78,0c-44.989,53.52-91.479,107.22-136.649,161.35
				c-1.439,1.73-3.189,3.379-4.33,5.141c-0.58,0.891,0,5.471,0,7.529c0,35.66,0,72.08,0,107.629c20.34,0,40.37,0,60.79,0
				C486.841,419.06,492.25,418.791,496.551,419.38z M450.04,235.57c0.33-6.99-3.021-13.77-6.26-17.32
				c-4.34-4.78-11.08-8.8-20.689-7.86c-7.141,0.7-12.251,4.18-15.721,8.18c-3.31,3.81-6.479,10.17-5.93,17.64
				c0.939,12.79,11.03,22.69,24.7,22.61C439.29,258.75,449.43,248.27,450.04,235.57z"/>
		</g>
	</g>
</g>
</svg>
