<?xml version="1.0" encoding="utf-8"?>
<!-- Generator: Adobe Illustrator 15.0.0, SVG Export Plug-In . SVG Version: 6.00 Build 0)  -->
<!DOCTYPE svg PUBLIC "-//W3C//DTD SVG 1.1//EN" "http://www.w3.org/Graphics/SVG/1.1/DTD/svg11.dtd">
<svg version="1.1" id="Layer_1" xmlns="http://www.w3.org/2000/svg" xmlns:xlink="http://www.w3.org/1999/xlink" x="0px" y="0px"
	 width="841.89px" height="595.28px" viewBox="0 0 841.89 595.28" enable-background="new 0 0 841.89 595.28" xml:space="preserve">
<g>
	<g id="XMLID_1_">
		<g>
			<path d="M443.78,218.25c3.239,3.55,6.59,10.33,6.26,17.32c-0.61,12.7-10.75,23.18-23.9,23.25c-13.669,0.08-23.76-9.82-24.7-22.61
				c-0.55-7.47,2.62-13.83,5.93-17.64c3.47-4,8.58-7.48,15.72-8.18C432.7,209.45,439.44,213.47,443.78,218.25z"/>
			<path d="M496.55,419.38c11.33,1.53,20.99,13.7,14.92,27.101c-3.04,6.72-8.72,11.55-18.93,11.55c-60.58,0-121.55,0-182.36,0
				c-10.12,0-15.73-4.9-18.77-11.55c-6.1-13.341,3.5-25.551,15.08-27.101c4.28-0.58,9.62-0.32,14.75-0.32c20.42,0,40.44,0,60.79,0
				c0.01-38.779,0-76.569,0-114.359c0-1.38-2.79-4.15-4.17-5.78c-45.65-54.2-91.11-107.49-136.81-161.51
				c106.55-0.27,214.24-0.27,320.78,0c-44.99,53.52-91.48,107.22-136.65,161.35c-1.439,1.73-3.189,3.38-4.33,5.141
				c-0.58,0.89,0,5.47,0,7.529c0,35.66,0,72.08,0,107.63c20.34,0,40.37,0,60.79,0C486.84,419.06,492.25,418.79,496.55,419.38z
				 M450.04,235.57c0.33-6.99-3.021-13.77-6.26-17.32c-4.34-4.78-11.08-8.8-20.69-7.86c-7.14,0.7-12.25,4.18-15.72,8.18
				c-3.31,3.81-6.48,10.17-5.93,17.64c0.94,12.79,11.03,22.69,24.7,22.61C439.29,258.75,449.43,248.27,450.04,235.57z"/>
		</g>
		<g>
		</g>
	</g>
</g>
</svg>
