<?xml version="1.0" encoding="utf-8"?>
<!-- Generator: Adobe Illustrator 15.0.0, SVG Export Plug-In . SVG Version: 6.00 Build 0)  -->
<!DOCTYPE svg PUBLIC "-//W3C//DTD SVG 1.1//EN" "http://www.w3.org/Graphics/SVG/1.1/DTD/svg11.dtd">
<svg version="1.1" id="Layer_1" xmlns="http://www.w3.org/2000/svg" xmlns:xlink="http://www.w3.org/1999/xlink" x="0px" y="0px"
	 width="841.89px" height="595.28px" viewBox="0 0 841.89 595.28" enable-background="new 0 0 841.89 595.28" xml:space="preserve">
<g>
	<path fill-rule="evenodd" clip-rule="evenodd" fill="#85AB70" d="M436.382,233.48c41.448,7.882,71.986,35.682,95.208,70.789
		c23.021,34.804,40.472,82.022,42.71,146.085c-6.079,0-12.16,0-18.24,0c-6.288-103.699-48.459-166.649-111.225-188.559
		c54.446,31.289,93.732,84.51,97.878,188.559c-94.468,0-188.932,0-283.401,0c0.489-10.234,0.146-21.669,3.561-27.673
		c-0.065-1.788-2.429-1.646-0.891-3.861c-0.452-4.207,0.92-0.776,1.335-1.93c0.918-27.276,10.089-54.51,18.686-74.651
		c24.076-56.418,61.801-97.406,115.229-108.759c-4.464-22.394,5.164-41.283,18.686-41.832
		C430.58,191.053,441.719,210.502,436.382,233.48z"/>
	<path fill-rule="evenodd" clip-rule="evenodd" fill="#85AB70" d="M234.844,460.008c4.892-1.831,15.902-0.641,24.024-0.641
		c85.826,0,171.33,0,258.042,0c19.927,0,46.438,0,70.738,0c9.14,0,16.639-1.055,16.906,10.296
		c0.257,10.882-7.174,10.94-16.906,10.94c-113.452,0-223.955,0-337.678,0c-10.001,0-17.754,1.346-20.02-5.793
		C227.86,468.23,229.7,461.938,234.844,460.008z"/>
</g>
</svg>
