<?xml version="1.0" encoding="utf-8"?>
<!-- Generator: Adobe Illustrator 15.0.0, SVG Export Plug-In . SVG Version: 6.00 Build 0)  -->
<!DOCTYPE svg PUBLIC "-//W3C//DTD SVG 1.1//EN" "http://www.w3.org/Graphics/SVG/1.1/DTD/svg11.dtd">
<svg version="1.1" id="Layer_1" xmlns="http://www.w3.org/2000/svg" xmlns:xlink="http://www.w3.org/1999/xlink" x="0px" y="0px"
	 width="841.891px" height="595.281px" viewBox="0 0 841.891 595.281" enable-background="new 0 0 841.891 595.281"
	 xml:space="preserve">
<g>
	<path fill="#231F20" d="M303.833,338.876c-36.213,8.771-70.245,19.658-106.76,28.139c-24.344-35.487-41.248-84.036-53.017-142.812
		c-15.577-77.81-12.807-190.912,69.721-195.576c8.155-0.462,23.056,1.905,31.23,5.628c25.555,11.641,42.45,37.887,55.922,65.426
		c13.664,27.932,24.172,60.94,24.692,94.976c0.35,22.996-5.807,44.794-11.62,64.019C306.56,283.265,302.243,307.961,303.833,338.876
		z"/>
	<path fill="#231F20" d="M551.785,365.509c-37.499-6.063-72.034-15.345-109.005-21.985c3.797-54.004-27.209-90.41-30.394-141.329
		c-1.883-30.163,5.493-63.749,15.621-90.391c13.083-34.416,35.53-77.263,77.927-82.655c27.045-3.444,51.44,8.991,63.284,23.883
		c29.722,37.372,34.281,108.035,26.68,164.094C587.636,278.026,573.336,326.73,551.785,365.509z"/>
	<path fill="#231F20" d="M211.597,403.599c32.081-9.146,68.375-18.542,99.496-26.733c0.668-0.176,2.219-1.048,2.908-0.704
		c4.842,2.432,8.975,13.534,12.346,19.701c10.551,19.297,21.684,43.867,19.609,73.865c-2.106,30.403-21.506,58.325-54.47,58.393
		c-22.506,0.05-39.747-14.152-50.111-27.437C222.708,476.76,214.873,443.903,211.597,403.599z"/>
	<path fill="#231F20" d="M433.437,381.406c36.369,6.046,71.148,13.815,105.377,22.196c-0.755,38.892-6.87,73.199-23.893,97.904
		c-16.16,23.452-52.565,41.328-81.712,20.152c-13.235-9.614-21.95-25.565-24.519-44.411
		C403.348,438.081,420.634,406.981,433.437,381.406z"/>
</g>
</svg>
