<?xml version="1.0" encoding="utf-8"?>
<!-- Generator: Adobe Illustrator 15.0.0, SVG Export Plug-In . SVG Version: 6.00 Build 0)  -->
<!DOCTYPE svg PUBLIC "-//W3C//DTD SVG 1.1//EN" "http://www.w3.org/Graphics/SVG/1.1/DTD/svg11.dtd">
<svg version="1.1" id="Layer_1" xmlns="http://www.w3.org/2000/svg" xmlns:xlink="http://www.w3.org/1999/xlink" x="0px" y="0px"
	 width="841.89px" height="595.28px" viewBox="0 0 841.89 595.28" enable-background="new 0 0 841.89 595.28" xml:space="preserve">
<g>
	<path fill-rule="evenodd" clip-rule="evenodd" d="M287.332,96.786c53.744,0,107.486,0,161.229,0
		c5.119,32.05,16.823,63.406,15.748,94.488c-1.734,50.137-33.685,86.746-80.24,95.988c0,15.904,0,30.685,0,48.744
		c0,13.323-3.45,37.758,3.75,44.995c4.344,4.367,14.124,3.614,21.747,5.999c13.63,4.264,21.551,14.484,21.747,30.746
		c-42.495,0-84.989,0-127.484,0c0.291-14.889,6.579-24.736,18.748-29.996c8.384-3.624,22.062-2.179,26.247-8.249
		c6.057-8.785,2.25-31.509,2.25-44.994c0-16.901,0-31.386,0-46.495c-46.161-10.458-80.451-45.857-80.24-100.487
		c0.117-30.363,10.658-58.8,14.998-88.489C285.799,97.753,286.389,97.094,287.332,96.786z"/>
</g>
</svg>
