<?xml version="1.0" encoding="utf-8"?>
<!-- Generator: Adobe Illustrator 15.0.0, SVG Export Plug-In . SVG Version: 6.00 Build 0)  -->
<!DOCTYPE svg PUBLIC "-//W3C//DTD SVG 1.1//EN" "http://www.w3.org/Graphics/SVG/1.1/DTD/svg11.dtd">
<svg version="1.1" id="Background__x2B__Layer_1__x2B__Threshold_1_xA0_Image_1_"
	 xmlns="http://www.w3.org/2000/svg" xmlns:xlink="http://www.w3.org/1999/xlink" x="0px" y="0px" width="500px" height="500px"
	 viewBox="0 0 500 500" enable-background="new 0 0 500 500" xml:space="preserve">
<g>
	<path d="M219,137c9.29-3.347,16.643,1.767,21,7c3.179-3.061,2.345,0.229,6,1c2.948,0.622,3.988-2.017,9-3
		c1.088-0.213,0.729,2.021,1,2c2.133-0.161,4.041-3.081,7-4c3.979-1.235,8.986,0.66,12,0c1.158-0.253,1.161-2.709,2-3
		c1.782-0.619,6.028,0.38,7,0c5.89-2.3,6.417-7.842,9-11c1.313-1.2,1.573-0.39,3,0c5.47-8.198,7.947-19.386,10-31
		c4.255,1.478,1.935-1.567,7,0c10.437-8.426-14.193-27.304,1-31c1.118-0.272,1.951,5.188,3,0c1.483,0.85,2.15,2.517,2,5
		c2.278-0.835,11.319-0.495,9-11c5.731-2.902,9.705-3.483,16-7c-2.869,3.295,2.262,1.152,2,1c6.813,3.961,9.453,17.875,16,23
		c-2.819,0.18-1.247,4.753-5,4c-0.099,4.568,1.002,10.335-3,11c4.022,1.923,0.059,7.16-2,9c2.336,6.137-5.289,13.942-9,19
		c3.564,11.75-7.131,13.816-5,27c-6.119,0.82-11.543,18.779-18,26c-1.085,1.214-6.494-0.047-5,5c-5.187,0.813-7.902,4.097-10,8
		c-14.8,3.133-29.504,8.835-57,7c-3.098,2.897-8.876,8.258-13,15c1.16,3.254,1.877,10.883,0,14c1.11,2.557,1.869,5.465,4,7
		c2.556,13.426-7.414,13.877-2,26c3.583,8.023,10.346,16.473,20,17c1.361,5.639,7.436,6.564,12,9c9.379-1.971,26.364-13.188,28,5
		c6.378,3.622,9.454,10.546,14,16c1,0,2,0,3,0c5.729-7.236,15.412-3.732,19,3c9.144,0.667,12.297,8.432,24,8
		c-0.826,2.826,1.409,2.591,1,5c1.987-0.013,1.271-2.729,4-2c1.072,2.928,2.838,5.162,2,10c2.562-2.106,7.758-1.575,11-3
		c-0.976-10.141-5.104-17.205-3-28c1,0,2,0,3,0c-4.239-10.266,9.101-10.945,10-14c10.566,0.439,21.501-0.473,23,11
		c3.567-2.598,5.891,3.489,5,5c6.498-4.113,7.769-7.441,18-8c16.68,20.819-9.802,45.071-12,66c-6.659,4.84-3.065,3.717-7,13
		c-4.409,0.258-5.053,4.28-6,8c-3.806,0.444-3.762,0.762-7,3c-5.012-2.546-4.759-4.51-12-4c-3.968-8.733-15.159-7.033-20-13
		c-0.467-2.134,1.43-1.904,3-2c-0.511-3.823-5.03-3.635-8-5c-1.566,0.354,0.875,1.761-1,2c-12.652,0.878-40.961,3.195-49-2
		c-6.701-0.803-21.962,2.194-21-3c-5.321,8.944-11.758,11.365-22,11c-6.021-10.177-25.167-6.261-34-11
		c0.068,8.941-5.105,19.837-13,24c1.195,5.905,2.076,13.817-3,16c1.246,2.421,2.477,4.857,3,8c-9.539,7.28,3.043,26.162-10,28
		c-1.393,5.076-3.812,17.877,3,20c9.975-18.418,13.008-21.297,36-18c1.532,2.468,2.354,5.646,7,5c3.492,9.804,3.475,22.858-4,29
		c0.19,0.81,1.003,0.997,1,2c9.672-1.313,21.247,12.674,11,24c-6.342,0.389-9.015-0.572-11,5c-0.839-5.391-9.788,4.084-8-2
		c-5.6,1.162-6.794,1.104-12,0c-12.76-2.707-44.415,4.286-50-3c-4,0-8,0-12,0c1.663-1.876-2.295-2.651-4-6
		c-1.426-4.427,3.384-2.616,3-6c0.301-2.635-1.385-3.282-4-3c1.192-6.836-3.165-14.143-4-22c2.622-5.045,6.838-8.496,8-15
		c-0.956-4.044-4.898-5.101-8-7c0.246-10.719,2.096-21.298-3-30c0.478-14.13-4.888-24.611-14-30c-8.827,3.57-13.195-22.458-7-29
		c-2.726-11.509-2.643-21.159-7-32c-4.859-0.193-9.56-0.227-12,2c-2.946,18.927-20.703,16.983-30,2c-0.263-4.929-0.399-9.733,3-11
		c-1.808-7.857-1.834-17.499-8-21c2.288-3.922,3.25-11.482-1-14c0.688-11.568-2.738-20.612-4-29c-0.157-1.042,2.02-0.774,2-1
		c-0.413-4.99-7.566-14.039,0-18c-3.499-31.499,16.615-39.384,26-58c5.454-0.077,2.401-1.067,7-2c13.154-12.116,27.147-21.882,42-32
		c-0.563-4.564,1.772-6.228,1-11c-9.063-4.603-18.332-9.001-24-17c9.68-8.987,16.085-21.249,16-40
		c12.619-15.047,25.766-29.568,38-45c12.113-0.78,10.445,12.222,22,12c-0.609,3.184,5.082,8.788,5,5c8.377,3.29,11.979,11.355,19,16
		c2.523,9.811,6.327,18.34,12,25c-0.306,3.027-3.094,3.573-2,8c1.313-3.413,3.568,0.883,7,1c1.06,4.608,3.551,7.783,5,12
		c-3.251,7.416-6.146,15.188-11,21c-6.913-1.156-13.187,6.428-16,3C226.691,123.33,220.53,124.117,219,137z M127,236
		c-1.106-4.226,2.354-13.021-2-14C125.817,226.517,123.073,234.594,127,236z"/>
</g>
</svg>
